<svg xmlns="http://www.w3.org/2000/svg" viewBox="0 0 40 40"><defs><style>.cls-1{fill:#ea0029;}.cls-2{fill:#fff;}.cls-3{fill:#231f20;}</style></defs><g id="Layer_2" data-name="Layer 2"><g id="Layer_1-2" data-name="Layer 1"><polygon class="cls-1" points="12.54 2 2 12.54 2 27.46 12.54 38 27.46 38 38 27.46 38 12.54 27.46 2 12.54 2"/><path class="cls-2" d="M39.41,11.13,28.87.59,28.28,0H11.72l-.59.59L.59,11.13,0,11.72V28.28l.59.59L11.13,39.41l.59.59H28.28l.59-.59L39.41,28.87l.59-.59V11.72ZM38,27.46,27.46,38H12.54L2,27.46V12.54L12.54,2H27.46L38,12.54Z"/><path class="cls-2" d="M29.62,12.4l-.1.14h0l-.08.1-.18.23A.29.29,0,0,1,29,13l.11.06a0,0,0,0,0,0,0h0s0,0-.06.07h0l0,0-.13.08-.07,0,.07,0,.05,0-.16.16-.17.1-.07,0,0,0a.38.38,0,0,1,.11.08.89.89,0,0,1-.17.15l-.05,0-.07,0h0l-.21.13,0,0h0a.43.43,0,0,1,.17.09h0a.74.74,0,0,1-.18.17,2.32,2.32,0,0,1-.38.2l-.05,0,.21.14a1.44,1.44,0,0,1-.46.28l-.21.08.05,0,.16.09,0,0-.07.06-.16.1a3,3,0,0,1-.47.14h0a.67.67,0,0,1,.21.17l-.06,0a2.23,2.23,0,0,1-.64.25h-.05a.65.65,0,0,1,.22.15h0a1.5,1.5,0,0,1-.59.25l-.18,0h0a.62.62,0,0,1,.23.14l0,0a1.56,1.56,0,0,1-.9.26,1,1,0,0,1,.3.18h0a1.35,1.35,0,0,1-.38.16,1.32,1.32,0,0,1-.52,0l.1.08a.42.42,0,0,1,.11.17.88.88,0,0,1-.22.1,1.48,1.48,0,0,1-.71,0l.06,0,.12.1,0,0a1.91,1.91,0,0,1-1,.18.6.6,0,0,1,.26.17l-.08.05h0l-.08,0a.31.31,0,0,1,0,.21s0,0,0,0a.61.61,0,0,1,.16-.11.9.9,0,0,1,.38-.11h0a.65.65,0,0,1-.1.22,1.06,1.06,0,0,1,.57-.19h0a.41.41,0,0,1-.09.2,1.19,1.19,0,0,1,.54-.13h0a.34.34,0,0,1-.07.17,1.36,1.36,0,0,1,.44-.11H25a.49.49,0,0,1-.05.17,1.25,1.25,0,0,1,.37-.1h.13a1.48,1.48,0,0,1-.08.17l.23-.05h.28l-.07.15h.31l.18,0a.3.3,0,0,1-.07.13h.29l.15,0a.36.36,0,0,1-.05.12h.13a.49.49,0,0,1,.21,0l0,.09h.15l.11,0h0s0,.06,0,.07a.21.21,0,0,1,.13,0h0c.1,0,.34.11.38.12l-.11.05-.08,0-.19.06h0a.16.16,0,0,1-.12,0h0l0,0v0H27l0,.09a.85.85,0,0,1-.34,0,.25.25,0,0,1,0,.07.08.08,0,0,1,0,.05h0l-.08,0h-.35l0,0h0a.19.19,0,0,1,0,.09.82.82,0,0,1-.23,0h-.26a1.16,1.16,0,0,1,.07.15,1.31,1.31,0,0,1-.51-.05l0,.06,0,.11a.66.66,0,0,1-.31,0,1.14,1.14,0,0,1-.19-.07l0,.07a.3.3,0,0,1,0,.1h0a1.41,1.41,0,0,1-.51-.11.4.4,0,0,1,.07.17,1.25,1.25,0,0,1-.54-.13.42.42,0,0,1,.08.16s0,0,0,0h0a1.07,1.07,0,0,1-.58-.19l0,.07a.48.48,0,0,1,.05.14.86.86,0,0,1-.35-.08l-.19-.12h0l0,0a.34.34,0,0,1,0,.22,1,1,0,0,1-.57-.27.42.42,0,0,1,.05.17.58.58,0,0,1-.28-.07A2.11,2.11,0,0,1,22,20s0,0,0,0a.67.67,0,0,1,.06.15v0a.57.57,0,0,1-.18,0l0,0h-.05l-.05,0h.07a.55.55,0,0,1,.28.09.28.28,0,0,1-.09.06h0l.16,0a.54.54,0,0,1,.18.1l0,0h0l-.08,0a.65.65,0,0,1,.3.12.21.21,0,0,1-.09.06h0a1,1,0,0,1,.23.09l0,0a.21.21,0,0,1-.09.06l.07,0a.41.41,0,0,1,.2.12l-.09,0h0a.82.82,0,0,1,.26.15l0,0-.06,0,0,0,.05,0h0l0,0,.05,0h0l.05,0,0,0a.12.12,0,0,1-.06,0l.13.09h0l.07.06-.07,0a.42.42,0,0,1,.15.12l0,0,0,0,.05,0s0,0,0,0h0l0,0h0l0,0h0a.09.09,0,0,1,.06,0h0l.06.08.07.11h-.07l-.05,0-.1,0h0a.1.1,0,0,1-.06-.07s0,0,0,0h-.05l0,0-.05,0v0h0a.13.13,0,0,1,0,0h0a.48.48,0,0,1-.13-.09h0v0s0,0,0,0L23,22h0l-.1-.08h0v0a.08.08,0,0,1,0,0v0l-.06,0h0l0,0,0,0h0l0,0,0,0h0a.45.45,0,0,1,0,.08.37.37,0,0,1-.17-.14l-.05-.06a.35.35,0,0,0,0,.07s0,0,0,0l-.07-.05a1,1,0,0,1-.13-.17.43.43,0,0,1,0,.1.71.71,0,0,1-.21-.23.21.21,0,0,1,0,.1.8.8,0,0,1-.21-.25h0a.23.23,0,0,1,0,.12.66.66,0,0,1-.21-.3.37.37,0,0,1,0,.08.14.14,0,0,1,0,.06.57.57,0,0,1-.18-.29v0h0a.25.25,0,0,1,0,.08l0,0a.56.56,0,0,1-.17-.32l0,.07,0,0a.4.4,0,0,1-.12-.16l-.07-.17v0a.17.17,0,0,1,0,.1l-.07-.08v0l0,0a.05.05,0,0,0,0,0v0a.56.56,0,0,1,0-.12.12.12,0,0,0,0-.05s0,.05-.06.06l-.08-.12v0l0,0a0,0,0,0,0,0,0s0,0,0-.06h0a.18.18,0,0,1,0,0s0,.07-.06.08a.6.6,0,0,1-.08-.19h0a.13.13,0,0,1,0-.06h0a.45.45,0,0,1,0-.08,0,0,0,0,1,0,0l0,0a8,8,0,0,0,1.14,5s-.45.23-.48.21a10.3,10.3,0,0,1-1-4.95s0,0,0,0-.06-.08-.06-.08a.18.18,0,0,1,0,0h0a.25.25,0,0,1,0,.07v.09a.47.47,0,0,1-.09.12.09.09,0,0,1-.06-.06.12.12,0,0,0,0,.05.61.61,0,0,1-.05.12v0l0,0v0l0,0-.07.08s0,0,0-.06h0v-.07a1,1,0,0,1-.1.21.41.41,0,0,1-.12.14l0-.07a.1.1,0,0,0,0,0,.63.63,0,0,1-.1.25l-.09.09a.26.26,0,0,1-.07-.12v0h0a.49.49,0,0,1-.09.18.6.6,0,0,1-.11.12v0a.43.43,0,0,1,0-.13.65.65,0,0,1-.24.31,0,0,0,0,0,0,0,.31.31,0,0,1,0-.09v0a.83.83,0,0,1-.23.26.26.26,0,0,1,0-.11h0l-.09.1a.67.67,0,0,1-.15.14.14.14,0,0,1,0-.06.18.18,0,0,1,0-.05l-.07.1a.45.45,0,0,1-.15.13,0,0,0,0,1,0,0v-.09s-.16.18-.25.2v0l0-.08h0l0,0s0,0,0,0h0l0,0-.05,0h0L17,22a.13.13,0,0,1,0-.08h0L17,22h0l0,0h0l0,0h0l0,0h0a.09.09,0,0,1,0,0v0a.71.71,0,0,1-.15.1h0a.12.12,0,0,0,0,0l0,0-.05,0h-.08v-.05a.11.11,0,0,1,0,.07h0l-.11,0h0l-.06,0h0l.08-.1.07-.09a.11.11,0,0,1,.1,0l0,0h0l0,0h0l0,0,.06,0h0l0,0a.38.38,0,0,1,.12-.1l.05,0-.05,0,0,0a.22.22,0,0,1,.07-.06h0l.13-.09a.08.08,0,0,1-.05,0l0,0h0l.05-.05h0l.05,0,0,0h0l.06,0h0a.19.19,0,0,1-.08-.05.31.31,0,0,1,.11-.08h0l.17-.07A.28.28,0,0,1,17,21h0a.53.53,0,0,1,.21-.11l.09,0-.07-.05a0,0,0,0,1,0,0,.85.85,0,0,1,.31-.13h0l-.07-.05a.84.84,0,0,1,.32-.12.25.25,0,0,1-.11-.07h0a.65.65,0,0,1,.37-.11l-.11-.06v0a.64.64,0,0,1,.2-.08A.87.87,0,0,1,18.1,20a.5.5,0,0,1-.12.08l-.08,0a.82.82,0,0,1-.38.13h0a.47.47,0,0,1,0-.17h0a.92.92,0,0,1-.57.27.43.43,0,0,1,0-.22l0,0a.94.94,0,0,1-.3.16.59.59,0,0,1-.23,0,.24.24,0,0,1,.05-.13.54.54,0,0,0,0-.08l-.13.08a1.05,1.05,0,0,1-.44.11h0a.24.24,0,0,1,0-.08.22.22,0,0,1,.07-.12,1.3,1.3,0,0,1-.54.13.19.19,0,0,1,0-.08s0-.08,0-.09a1.21,1.21,0,0,1-.52.11.34.34,0,0,1,.05-.17l-.08,0a.76.76,0,0,1-.42.06,0,0,0,0,1,0,0l0-.09,0-.05h-.05a1.12,1.12,0,0,1-.45,0h0l0-.08,0-.07H14a.75.75,0,0,1-.22,0h0a.66.66,0,0,1,0-.11l0,0h-.36l-.08,0h0s0,0,0,0a.45.45,0,0,1,0-.08,1,1,0,0,1-.23,0l-.1,0a.41.41,0,0,1,0-.09h-.28a0,0,0,0,1,0,0,.05.05,0,0,1,0,0,.24.24,0,0,1-.12,0H12.7l-.18-.06-.07,0h0l-.1,0,.21-.07.17-.05a.19.19,0,0,1,.17,0h0s0-.05,0-.07h.28a.41.41,0,0,1,0-.09l.05,0a1.2,1.2,0,0,1,.28,0v0h0l0-.08.15,0h.29l0,0h0a.19.19,0,0,1,0-.09h0a.75.75,0,0,1,.22,0h.26l0-.06a.36.36,0,0,1,0-.09.44.44,0,0,1,.17,0h.08l.26.05,0-.05,0,0a.25.25,0,0,1,0-.07.63.63,0,0,1,.27,0l.23.08a.36.36,0,0,1-.05-.17,1.14,1.14,0,0,1,.37.05l.15.06,0-.09a.19.19,0,0,1,0-.08,1.22,1.22,0,0,1,.53.13A.42.42,0,0,1,16,18.4a.19.19,0,0,1,0-.08h0a1,1,0,0,1,.32.05h0a1,1,0,0,1,.25.13s0-.05-.05-.09a.33.33,0,0,1,0-.13.9.9,0,0,1,.56.24.43.43,0,0,1,0-.15l-.08,0h0l-.06,0h0a.27.27,0,0,1,.11-.1.84.84,0,0,1,.14-.08,2.32,2.32,0,0,1-.84-.09A.47.47,0,0,1,16.1,18a.79.79,0,0,1,.2-.18,1.33,1.33,0,0,1-.33,0,1.47,1.47,0,0,1-.34-.05,1,1,0,0,1-.27-.11s0,0,0,0a.55.55,0,0,1,.15-.18l.05,0a1.36,1.36,0,0,1-.91-.17,1,1,0,0,1,.31-.19,1.73,1.73,0,0,1-.42,0,1.58,1.58,0,0,1-.49-.21h0l0,0v0h0l.09-.07a.73.73,0,0,1,.14-.07,1.73,1.73,0,0,1-.26-.05l-.27-.09a1,1,0,0,1-.25-.13.6.6,0,0,1,.22-.16,2.18,2.18,0,0,1-.69-.25l-.06,0a.47.47,0,0,1,.1-.1.46.46,0,0,1,.11-.07,1.58,1.58,0,0,1-.71-.3l.18-.11.06,0s-.19-.07-.37-.16a.72.72,0,0,1-.31-.2l.07,0,.14-.09h-.05a2.32,2.32,0,0,1-.38-.2.74.74,0,0,1-.18-.17h0a.28.28,0,0,1,.11-.08l.07,0a.05.05,0,0,1,0,0h0l-.1,0h0l-.1-.06h0l-.06,0-.06,0L11.41,14h0a.38.38,0,0,1-.09-.09.75.75,0,0,1,.16-.1l-.22-.14a.71.71,0,0,1-.18-.16l.12-.08-.07,0L11,13.33l0,0,0,0-.06-.06h0a0,0,0,0,1,0,0l.1-.06a.28.28,0,0,1-.12,0,.25.25,0,0,1-.12-.07h0l-.18-.22-.2-.26h0l.31.08.27.07h0l.07,0a.28.28,0,0,1,.1.15v0s0-.07,0-.1h0l.08,0h0l0,0,.14.09.05,0a.87.87,0,0,1,0-.14l0,0,.15.06a1.74,1.74,0,0,1,.25.17.65.65,0,0,1,0-.19.75.75,0,0,1,.2.1l.06,0,.06,0h0l.09.07.09.07h0l0,0a.22.22,0,0,1,0-.06h0a.39.39,0,0,1,0-.14.64.64,0,0,1,.23.1,2.24,2.24,0,0,1,.34.27l0,0,0-.11,0-.13a2.1,2.1,0,0,1,.6.48,1.35,1.35,0,0,1,0-.29.79.79,0,0,1,.29.21h0a2.5,2.5,0,0,1,.26.31.64.64,0,0,1,0-.14.61.61,0,0,1,.05-.12,1.92,1.92,0,0,1,.32.26,2,2,0,0,1,.25.31.73.73,0,0,1,.06-.27l0,0a1.6,1.6,0,0,1,.38.35,2.05,2.05,0,0,1,.16.24v-.11a.77.77,0,0,1,.05-.19v0a1.59,1.59,0,0,1,.59.73s0-.07,0-.16a1.18,1.18,0,0,1,0-.2.78.78,0,0,1,.21.19,1.19,1.19,0,0,1,.31.57,1,1,0,0,1,0-.11.49.49,0,0,1,.11-.18,1.09,1.09,0,0,1,.4.49,1.21,1.21,0,0,1,.1.31.88.88,0,0,1,.08-.26,1.88,1.88,0,0,1,.54.82v-.11a.47.47,0,0,1,.06-.19l0,0,0,0h0a.52.52,0,0,1,.12.13h0a.51.51,0,0,1,.09.13l0,.05a.54.54,0,0,1,.05.11.59.59,0,0,1,0,.08s0,0,0,.08l0,.08,0,.15a.28.28,0,0,1,0-.07.2.2,0,0,1,.08-.08l0,0h0a1,1,0,0,1,.22.31h0v0a.42.42,0,0,1,.23,0h0s-.07-.06-.15-.16a1.64,1.64,0,0,1-.2-.26l0,0v0a1.6,1.6,0,0,1-.17-.42.43.43,0,0,1,.21-.05h.07L19,16.2a1.77,1.77,0,0,1-.44-.68.52.52,0,0,1,0-.21h0a.22.22,0,0,1,0-.08v0h0a.81.81,0,0,1,.32.14,4.1,4.1,0,0,1-.38-.65,1.26,1.26,0,0,1-.09-.41v0a1.8,1.8,0,0,1,.31.08,1.71,1.71,0,0,1-.44-.72,1,1,0,0,1,0-.3h.09a1,1,0,0,1,.29.06,1.61,1.61,0,0,1-.39-.79l0-.22a1.16,1.16,0,0,1,.4.18,1.94,1.94,0,0,1-.35-1.07.66.66,0,0,1,.26.08.37.37,0,0,1,.1.07,3.36,3.36,0,0,1-.21-.64,1.15,1.15,0,0,1,0-.32h.07a.92.92,0,0,1,.23.11,2.47,2.47,0,0,1-.2-.95.57.57,0,0,1,.24.06l.07,0a1.9,1.9,0,0,1-.17-.9h0l.19.08a.58.58,0,0,1,.12.07,3.55,3.55,0,0,1-.11-.72v0a.47.47,0,0,1,0-.17l.25.11h0a.18.18,0,0,0,0-.06,2.15,2.15,0,0,1,0-.51.91.91,0,0,1,0-.3h0a.36.36,0,0,1,.23.12.13.13,0,0,1,0-.06h0a.66.66,0,0,0,0-.13h0V7.08a.49.49,0,0,1,0-.12h0a.52.52,0,0,1,0-.14h0a.78.78,0,0,1,.21.1s0-.08,0-.18a1.49,1.49,0,0,1,.05-.43l.1,0,.06,0a.67.67,0,0,0,0-.1V6.21h0V6.1s0-.06,0-.09h0a1,1,0,0,1,0-.12h0v0a.18.18,0,0,1,.09,0h0a.29.29,0,0,1-.07-.22.13.13,0,0,1,0-.06,3.14,3.14,0,0,1,.11-.33l.12-.36h0c0,.11.08.23.13.35s.08.25.1.33v0a.3.3,0,0,1-.08.25l.11,0h0s0,0,0,0h0a1,1,0,0,1,0,.12h0s0,.06,0,.09v.1h0v.06a.67.67,0,0,0,0,.1l.16-.07a1.54,1.54,0,0,1,.05.48,1,1,0,0,0,0,.13l0,0,.17-.07a.68.68,0,0,1,0,.15h0a.49.49,0,0,1,0,.12v.18h0c0,.12,0,.22,0,.28a.07.07,0,0,1,0,0h0A.47.47,0,0,1,21,7.49a.91.91,0,0,1,0,.3,2,2,0,0,1,0,.5.26.26,0,0,0,0,.07l.07,0,.2-.08a.78.78,0,0,1,0,.16,3.42,3.42,0,0,1-.11.76A1.76,1.76,0,0,1,21.52,9a.86.86,0,0,1,0,.39,2.29,2.29,0,0,1-.16.51l.09,0a.71.71,0,0,1,.22,0,2.6,2.6,0,0,1-.2.95.57.57,0,0,1,.3-.12.07.07,0,0,1,0,0,2.56,2.56,0,0,1-.24.91.64.64,0,0,1,.36-.15,1.55,1.55,0,0,1,0,.31,2.06,2.06,0,0,1-.29.72l0,0a1.2,1.2,0,0,1,.25-.14.43.43,0,0,1,.14,0,.61.61,0,0,1,0,.14,1.76,1.76,0,0,1-.12.44,1.49,1.49,0,0,1-.28.43.67.67,0,0,1,.38,0,1.59,1.59,0,0,1-.48,1l.1,0a1.3,1.3,0,0,1,.21,0,1.52,1.52,0,0,1-.23.71,2.21,2.21,0,0,1-.24.36.82.82,0,0,1,.33-.13h0v.11h0a.76.76,0,0,1-.05.21,1.77,1.77,0,0,1-.44.68s-.05,0-.05.05h0a.4.4,0,0,1,.26,0h0a1.41,1.41,0,0,1-.17.41l0,0,0,0a2.34,2.34,0,0,1-.2.27l-.16.15a.49.49,0,0,1,.2,0h0l0,0h0a1.06,1.06,0,0,1,.21-.31h0a.43.43,0,0,1,.12.15l0-.15a.31.31,0,0,1,0-.08l0-.08,0-.08.05-.11s0,0,0,0l.09-.14.12-.13,0,0s0,0,0,0l0,0a.34.34,0,0,1,.05.14h0a.82.82,0,0,1,0,.16,2.72,2.72,0,0,1,.24-.51.85.85,0,0,1,.28-.31h0a.8.8,0,0,1,.08.21v0a1.92,1.92,0,0,1,.11-.35,2.53,2.53,0,0,1,.13-.22h0a1,1,0,0,1,.17-.19L23,15a.55.55,0,0,1,.15.3.32.32,0,0,1,0-.07v0s0,0,0-.06a1.35,1.35,0,0,1,.46-.61,1.06,1.06,0,0,1,.06.36,1.52,1.52,0,0,1,.13-.27,1.41,1.41,0,0,1,.45-.47.6.6,0,0,1,.06.32,2,2,0,0,1,.48-.56l.08-.05a.66.66,0,0,1,.06.26,1.53,1.53,0,0,1,.17-.22,1.46,1.46,0,0,1,.39-.35.64.64,0,0,1,.08.26,1.38,1.38,0,0,1,.17-.24,1,1,0,0,1,.37-.3.81.81,0,0,1,0,.25v0l.22-.22a1.22,1.22,0,0,1,.38-.27c0,.08,0,.17,0,.22v0l0,0a1.7,1.7,0,0,1,.33-.27,1,1,0,0,1,.23-.11.49.49,0,0,1,0,.15.15.15,0,0,1,0,.06l0,0,.19-.14h0l.08,0,0,0a1.08,1.08,0,0,1,.21-.11.69.69,0,0,1,0,.19l.06,0a1.07,1.07,0,0,1,.38-.21h0a.87.87,0,0,1,0,.13l.05-.05.13-.09.05,0h0l.08,0h0v0a.17.17,0,0,1,0,.07v0a.27.27,0,0,1,.12-.17l.05,0h0l.27-.08.31-.08Z"/><polygon class="cls-3" points="36.43 26.36 36.43 26.81 26.81 36.43 13.19 36.43 3.57 26.81 3.57 26.36 36.43 26.36"/><path class="cls-2" d="M13.22,29.33H11.86V27.89H16v1.44H14.67v4.51H13.22Z"/><path class="cls-2" d="M20.09,31.31H18.24v2.53H16.79v-6h1.45v2h1.85v-2h1.45v6H20.09Z"/><path class="cls-2" d="M26.92,31.65l1.15.85a3.18,3.18,0,0,1-2.6,1.43,3.1,3.1,0,1,1,0-6.2,3.22,3.22,0,0,1,2.63,1.46L26.94,30a1.81,1.81,0,0,0-1.47-.88,1.67,1.67,0,0,0,0,3.33A1.75,1.75,0,0,0,26.92,31.65Z"/><path class="cls-2" d="M27,36.82H13l-.11-.11L3.18,27V13L13,3.18H27L36.82,13V27l-.11.11Zm-13.62-.77h13.3l9.4-9.4V13.35L26.65,4H13.35L4,13.35v13.3Z"/></g></g></svg>